<svg xmlns="http://www.w3.org/2000/svg" viewBox="0 0 64 64" role="img" aria-label="Swordsman robot unit">
  <defs>
    <linearGradient id="body" x1="18" y1="13" x2="46" y2="54" gradientUnits="userSpaceOnUse">
      <stop stop-color="#c6e7ff"/>
      <stop offset="1" stop-color="#a8c7ff"/>
    </linearGradient>
    <linearGradient id="visor" x1="23" y1="22" x2="42" y2="33" gradientUnits="userSpaceOnUse">
      <stop stop-color="#0f2238"/>
      <stop offset="1" stop-color="#293952"/>
    </linearGradient>
  </defs>
  <ellipse cx="32" cy="56" rx="18" ry="4" fill="#9aaec4" opacity=".35"/>
  <path d="M48 9l4 4-17 21-4-4z" fill="#dbeafe" stroke="#6f8fb3" stroke-width="1.5"/>
  <circle cx="30" cy="32" r="4" fill="#64f1ff"/>
  <rect x="19" y="18" width="25" height="27" rx="9" fill="url(#body)" stroke="#5f83ad" stroke-width="2"/>
  <rect x="23" y="24" width="16" height="8" rx="4" fill="url(#visor)"/>
  <circle cx="28" cy="28" r="2" fill="#7ff8ff"/>
  <circle cx="35" cy="28" r="2" fill="#7ff8ff"/>
  <path d="M20 35l-8 4 3 11 10-3 1-8z" fill="#bfe6ff" stroke="#5f83ad" stroke-width="2" stroke-linejoin="round"/>
  <path d="M44 34l8-8" fill="none" stroke="#6f8fb3" stroke-width="4" stroke-linecap="round"/>
  <rect x="24" y="44" width="6" height="10" rx="3" fill="#8daee0"/>
  <rect x="35" y="44" width="6" height="10" rx="3" fill="#8daee0"/>
</svg>
